<?xml version="1.0" encoding="UTF-8"?><svg id="c" xmlns="http://www.w3.org/2000/svg" width="600" height="600" viewBox="0 0 600 600"><g><polyline points="164.12 201.4 160.36 141.87 100.83 145.63" fill="none" stroke="#0cb2da" stroke-linecap="round" stroke-linejoin="round" stroke-width="8"/><path d="M161.47,458.43c-42.8-37.72-65.94-89.65-69.83-142.88-4.25-58.17,10.84-101.91,40.83-142.04,5.31-7.1,27.9-31.65,27.9-31.65" fill="none" stroke="#0cb2da" stroke-linecap="round" stroke-linejoin="round" stroke-width="8"/><path d="M438.53,146.38c42.8,37.72,65.94,89.65,69.83,142.88,4.25,58.17-10.84,101.91-40.83,142.04-5.31,7.1-27.9,31.65-27.9,31.65" fill="none" stroke="#0cb2da" stroke-linecap="round" stroke-linejoin="round" stroke-width="8"/><polyline points="435.87 403.41 439.63 462.94 499.16 459.18" fill="none" stroke="#0cb2da" stroke-linecap="round" stroke-linejoin="round" stroke-width="8"/></g><g><path d="M424.86,111.51l-.87,.99c-66.65,76.25-174.72,76.25-241.37,0l-7.49-8.57,.87-.99c66.65-76.25,174.72-76.25,241.37,0l7.49,8.57Z" fill="none" stroke="#17365d" stroke-linecap="round" stroke-linejoin="round" stroke-width="8"/><ellipse cx="300" cy="107.72" rx="45.82" ry="45.9" fill="none" stroke="#17365d" stroke-linecap="round" stroke-linejoin="round" stroke-width="8"/></g><g><g><g><circle cx="300.42" cy="406.28" r="25.95" fill="none" stroke="#17365d" stroke-linecap="round" stroke-linejoin="round" stroke-width="8"/><path d="M351.65,502.16v-33.5c0-12.94-10.49-23.43-23.43-23.43h-57.59c-12.94,0-23.43,10.49-23.43,23.43v33.81" fill="none" stroke="#17365d" stroke-linecap="round" stroke-linejoin="round" stroke-width="8"/><line x1="271.58" y1="471.75" x2="271.58" y2="511.64" fill="none" stroke="#17365d" stroke-linecap="round" stroke-linejoin="round" stroke-width="8"/><line x1="327.78" y1="471.75" x2="327.78" y2="511.64" fill="none" stroke="#17365d" stroke-linecap="round" stroke-linejoin="round" stroke-width="8"/></g><g><g><circle cx="356.36" cy="364.43" r="25.95" fill="none" stroke="#17365d" stroke-linecap="round" stroke-linejoin="round" stroke-width="8"/><line x1="330.91" y1="431.03" x2="330.91" y2="444.96" fill="none" stroke="#17365d" stroke-linecap="round" stroke-linejoin="round" stroke-width="8"/><line x1="383.72" y1="431.03" x2="383.72" y2="476.09" fill="none" stroke="#17365d" stroke-linecap="round" stroke-linejoin="round" stroke-width="8"/></g><g><circle cx="244.48" cy="364.43" r="25.95" fill="none" stroke="#17365d" stroke-linecap="round" stroke-linejoin="round" stroke-width="8"/><line x1="215.64" y1="431.03" x2="215.64" y2="477.3" fill="none" stroke="#17365d" stroke-linecap="round" stroke-linejoin="round" stroke-width="8"/><line x1="268.45" y1="431.03" x2="268.45" y2="444.64" fill="none" stroke="#17365d" stroke-linecap="round" stroke-linejoin="round" stroke-width="8"/></g></g></g><path d="M272.28,403.39h-57.59c-12.94,0-22.29,10.49-22.29,23.43v50.49" fill="none" stroke="#17365d" stroke-linecap="round" stroke-linejoin="round" stroke-width="8"/><path d="M407.59,477.3v-50.49c0-12.94-10.49-23.43-23.43-23.43h-57.59" fill="none" stroke="#17365d" stroke-linecap="round" stroke-linejoin="round" stroke-width="8"/></g></svg>