<?xml version="1.0" encoding="utf-8"?>
<!-- Generator: Adobe Illustrator 26.5.0, SVG Export Plug-In . SVG Version: 6.00 Build 0)  -->
<svg version="1.1" xmlns="http://www.w3.org/2000/svg" xmlns:xlink="http://www.w3.org/1999/xlink" x="0px" y="0px" width="600px"
	 height="600px" viewBox="0 0 600 600" style="enable-background:new 0 0 600 600;" xml:space="preserve">
<style type="text/css">
	.st0{fill:none;stroke:#0CB2DA;stroke-width:8;stroke-linecap:round;stroke-linejoin:round;stroke-miterlimit:10;}
	.st1{fill:none;stroke:#17365D;stroke-width:8;stroke-linecap:round;stroke-linejoin:round;stroke-miterlimit:10;}
</style>
<g id="Layer_1">
</g>
<g id="Layer_3">
</g>
<g id="Layer_2">
	<g>
		<g>
			<path class="st1" d="M134.95911,431.1138c-44.52849-7.15878-47.71442,15.85013-47.71442,15.85013"/>
		</g>
		<g>
			<path class="st1" d="M465.04089,431.1138V128.19447c11.00928-0.82754,19.56546,0.81128,26.18979,3.64122
				c13.30194,5.68265,21.66635,19.06523,21.66635,33.53014v271.72913v10.76602c0,12.31863-3.7796,21.22858-19.88248,23.66217
				c-2.30539,0.34839-4.64233,0.4971-6.97391,0.4971h-372.0813c-2.33157,0-4.66853-0.14871-6.97391-0.4971
				c-16.10287-2.43359-19.88248-11.34354-19.88248-23.66217v-10.76602V165.36583c0-14.4649,8.36441-27.84749,21.66634-33.53014
				c6.62434-2.82994,15.18053-4.46876,26.1898-3.64122V431.1138"/>
			<line class="st1" x1="463.26706" y1="166.12917" x2="136.73294" y2="166.12917"/>
			<path class="st1" d="M465.04089,431.1138c44.5285-7.15878,47.71442,15.85013,47.71442,15.85013"/>
		</g>
	</g>
	<g>
		<g>
			<g>
				<path class="st0" d="M247.74438,384.8623c4.01012-0.56296,8.16975,0.26895,11.76059,2.46573
					c0.06085,0.03714,0.12167,0.07428,0.18262,0.11139c5.68008,3.45383,8.98196,9.74585,8.49948,16.37601l-0.59946,8.23853
					c-0.3252,4.46768,2.82864,8.43887,7.25394,9.13397l20.5213,3.22308c4.42517,0.6951,8.64438-2.11777,9.70471-6.46985
					l1.95584-8.02716c1.57352-6.45844,6.64499-11.43463,13.10983-12.98096c0.069-0.01645,0.13803-0.03314,0.20715-0.04987
					c6.45935-1.56335,13.22543,0.54602,17.57132,5.57416l5.40216,6.25046c2.92929,3.38913,7.9675,3.9671,11.58817,1.32938
					l16.79004-12.23175c3.62057-2.63763,4.61493-7.6102,2.28723-11.43744l-4.29349-7.05927
					c-3.45309-5.67749-3.38702-12.76352,0.08044-18.43216c0.03738-0.06094,0.07452-0.12201,0.11163-0.18307
					c3.45416-5.68088,9.74689-8.98325,16.3779-8.50031l8.23907,0.60007c4.46793,0.32544,8.43945-2.8284,9.13455-7.25394
					l3.22321-20.52188c0.6951-4.42542-2.11813-8.64474-6.47043-9.70483l-8.02786-1.9556
					c-6.45923-1.5733-11.43604-6.64548-12.98224-13.11124c-0.01645-0.06891-0.03305-0.13779-0.04974-0.20657
					c-1.56277-6.45889,0.54648-13.22403,5.57391-17.5697l6.25037-5.40262c3.38889-2.92929,3.96674-7.96725,1.32913-11.5878
					l-12.23199-16.7903c-2.63763-3.62067-7.6102-4.61505-11.43744-2.28732l-7.05835,4.293
					c-5.67783,3.45322-12.76456,3.38666-18.43341-0.0815c-0.06073-0.03714-0.12143-0.07416-0.18228-0.11116
					c-5.67957-3.45381-8.98123-9.74513-8.49911-16.37497l0.59924-8.24178c0.32495-4.46756-2.82877-8.4384-7.25394-9.13351
					l-20.52118-3.22307c-4.42542-0.69511-8.64474,2.11801-9.70486,6.47032l-1.95547,8.02763
					c-1.57327,6.45911-6.64545,11.43613-13.11136,12.98221c-0.06934,0.01659-0.1387,0.03328-0.20795,0.04999
					c-6.45889,1.5629-13.22403-0.54646-17.56958-5.57381l-5.40286-6.25056c-2.92929-3.38889-7.96725-3.96677-11.58792-1.32915
					l-16.7903,12.23189c-3.62054,2.63773-4.61504,7.61031-2.2872,11.43753l4.293,7.05858
					c3.45322,5.67749,3.3869,12.76364-0.08069,18.43237c-0.037,0.06049-0.07379,0.12097-0.11069,0.18146
					c-3.45381,5.68039-9.74606,8.98264-16.37648,8.50018l-8.23932-0.59973c-4.4678-0.32507-8.439,2.82877-9.13399,7.25406
					l-3.22331,20.522c-0.6951,4.42554,2.11836,8.64496,6.47079,9.70496l8.02495,1.95432
					c6.4597,1.57306,11.43718,6.6456,12.98328,13.11185c0.01669,0.06958,0.03339,0.13907,0.0502,0.20853
					c0.97675,4.03665,0.51901,8.19305-1.18903,11.80359"/>
			</g>
		</g>
		<path class="st0" d="M199.19766,367.69855l58.83951-45.16956c0.26117-0.20059,0.38226-0.52509,0.32312-0.84912
			c-3.09891-16.95514,3.12933-34.99734,17.74146-46.21469c14.18808-10.89178,32.56314-12.51782,47.87936-5.85223
			c0.76065,0.33087,0.87302,1.38559,0.21503,1.89062l-24.64606,18.92017c-0.23996,0.1842-0.36206,0.48343-0.31943,0.78299
			l3.31018,23.28387c0.04138,0.29044,0.23154,0.53827,0.50156,0.6532l21.63745,9.21402
			c0.27838,0.11859,0.59897,0.07794,0.83893-0.10626l24.64615-18.92007c0.65796-0.505,1.64774-0.12405,1.77097,0.69629
			c2.48166,16.51877-3.83725,33.84964-18.02542,44.74139c-14.6124,11.21765-33.65097,12.57196-49.22955,5.19711
			c-0.29761-0.14096-0.64236-0.10782-0.90363,0.09274l-58.83974,45.16946c-9.25903,7.10779-22.52692,5.36398-29.63484-3.89508l0,0
			C188.19479,388.07437,189.93861,374.80637,199.19766,367.69855z"/>
	</g>
</g>
</svg>
