<?xml version="1.0" encoding="UTF-8"?><svg id="Layer_1" xmlns="http://www.w3.org/2000/svg" width="600" height="600.000000000000909" viewBox="0 0 600 600.000000000000909"><defs><style>.cls-1{stroke:#e69f24;}.cls-1,.cls-2{fill:none;stroke-linecap:round;stroke-linejoin:round;stroke-width:14px;}.cls-2{stroke:#0cb2da;}</style></defs><polyline class="cls-2" points="187.022777997441153 166.487114862705312 125.398839060129831 166.487114859938629 125.398839062891057 104.863175922623668"/><path class="cls-2" d="M128.902653298870064,163.268507982630581c39.870432298650485-50.583390570717711,101.691467784270571-83.057965733953097,171.097346701129936-83.057965733953097,120.250772408540797,0,217.733284238031047,97.482511829498435,217.733284238031047,217.733284238033775,0,120.250772408532612-97.48251182949025,217.733284238035594-217.733284238031047,217.733284238035594-120.250772408538978,0-217.733284238029228-97.482511829502982-217.733284238029228-217.733284238035594,0-32.330591894214194,7.046578151050198-63.015367277111181,19.687687060910321-90.602278756435226"/><path class="cls-1" d="M432.701103265941128,207.31875910110648c-.824417680931219-4.178987449341548-6.007178495719927-5.745566583455002-9.018498592040487-2.733628019258504l-24.34969881132929,24.349698811336566c-2.078670536811842,2.078670536817299-5.448083534301986,2.078670536817299-7.526135603231523,0l-22.57778834183955-22.577169873957246c-2.077433601059965-2.07805206894227-2.077433601059965-5.448083534303805,0-7.525517135361952l24.350935747079347-24.350935747082985c3.011938564201046-3.011320096323288,1.444740962209835-8.192843975363758-2.733628019259413-9.017880124154544-16.817996997178852-3.319317099399996-34.924262583550444,1.521430979038996-47.957236169469979,14.553786097081684-14.584709490949535,14.58470949095863-18.911510763060505,35.522939489123019-13.020604228360753,53.900094005897699,.624652556431101,1.947555346746412,.20100206024108,4.073847910143741-1.244975837729726,5.520444275996852l-87.350547636990086,87.350547636980991c-1.445977897968987,1.445977897967168-3.572270461369044,1.869009926289436-5.520444275978662,1.244975837731545-18.377154516780138-5.890906534701571-39.315384514949983-1.564105262597877-53.900094005921346,13.020604228371667-13.032355118029955,13.032973585917716-17.873103196468946,31.139239172271118-14.553786097079865,47.95723616946816,.825036148809886,4.178368981469248,6.006560027830346,5.745566583456821,9.017880124170915,2.733628019248499l24.350935747070253-24.350935747082985c2.07743360106906-2.078052068931356,5.447465066428776-2.078052068931356,7.525517135369228,0l22.577169873960884,22.577788341843188c2.078670536810023,2.078052068931356,2.078670536810023,5.447465066417863,0,7.525517135361952l-24.349698811340204,24.350317279198862c-3.011938564190132,3.011320096322379-1.444740962209835,8.193462443234239,2.733628019259413,9.01849859203503,16.817378529320195,3.319317099403634,34.923644115669958-1.520812511163967,47.956617701589494-14.554404564963988,14.584709490980458-14.584709490960449,18.910892295200028-35.52232102124799,13.020604228369848-53.900094005899518-.624034088559711-1.947555346745503-.201620528119747-4.073229442266893,1.244975837720631-5.519825808107271l87.350547636990086-87.350547636994634c1.446596365860387-1.446596365841287,3.572270461369044-1.869009926287617,5.519825808129099-1.244975837731545,18.377772984640615,5.890288066829271,39.315384514920879,1.564105262607882,53.900094005890423-13.020604228361663,13.033592053790926-13.032973585916807,17.874340132229918-31.139857640154332,14.554404564971264-47.95661770159586Z"/></svg>